<svg xmlns="http://www.w3.org/2000/svg" viewBox="0 0 20 20" id="icon">
    <path d="M1.19434 10.1345C5.85934 8.12369 8.9693 6.7979 10.5243 6.15739C14.9693 4.3284 15.8918 4.01074 16.4943 4.0001C16.6268 3.99788 16.9218 4.03029 17.1143 4.18441C17.2743 4.3143 17.3193 4.48995 17.3418 4.61315C17.3618 4.73635 17.3893 5.01715 17.3668 5.23634C17.1268 7.73998 16.0843 13.8155 15.5543 16.6197C15.3318 17.8063 14.8893 18.2041 14.4618 18.2429C13.5318 18.3275 12.8268 17.6353 11.9268 17.0517C10.5193 16.1381 9.72432 15.5695 8.35682 14.6782C6.77682 13.648 7.80179 13.0817 8.70179 12.1565C8.93679 11.9143 13.0318 8.22932 13.1093 7.89509C13.1193 7.85328 13.1293 7.69742 13.0343 7.61529C12.9418 7.53291 12.8042 7.56111 12.7042 7.58337C12.5617 7.61504 10.3142 9.08655 5.95423 11.9976C5.31673 12.4316 4.73925 12.6431 4.21925 12.632C3.64925 12.6198 2.54932 12.3123 1.73182 12.0496C0.73182 11.7272 -0.0657192 11.5568 0.00428084 11.0093C0.0392808 10.7243 0.436844 10.4326 1.19434 10.1345Z" />
</svg>
