<svg xmlns="http://www.w3.org/2000/svg" viewBox="0 0 16 16" id="icon">
    <path d="M13.608 2.325A7.88 7.88 0 0 0 7.998 0C3.625 0 .067 3.556.065 7.928c0 1.397.365 2.76 1.06 3.964L0 16l4.204-1.102a7.928 7.928 0 0 0 3.79.965h.004c4.37 0 7.93-3.557 7.93-7.93a7.88 7.88 0 0 0-2.32-5.608zm-5.61 12.2h-.003a6.583 6.583 0 0 1-3.355-.92l-.24-.143-2.496.654.666-2.43-.157-.25a6.573 6.573 0 0 1-1.007-3.508A6.6 6.6 0 0 1 8 1.338a6.55 6.55 0 0 1 4.66 1.934 6.55 6.55 0 0 1 1.93 4.662 6.6 6.6 0 0 1-6.592 6.59zm2.26-5.58c-.18-.068-.313-.1-.445.098s-.512.644-.627.777c-.116.132-.23.148-.43.05-.198-.1-.836-.31-1.593-.984-.59-.525-.987-1.174-1.102-1.373-.115-.198-.012-.305.087-.404.09-.09.2-.232.298-.348.1-.116.132-.198.198-.33.066-.133.033-.248-.017-.348-.05-.1-.446-1.074-.61-1.47-.162-.387-.325-.334-.447-.34a7.945 7.945 0 0 0-.38-.007.728.728 0 0 0-.53.247c-.18.2-.692.678-.692 1.653s.71 1.917.81 2.05c.098.132 1.396 2.133 3.384 2.99.473.205.842.327 1.13.418.474.15.906.13 1.248.08.38-.058 1.172-.48 1.338-.943.165-.463.165-.86.115-.942-.05-.083-.182-.133-.38-.232-.198-.1-1.172-.578-1.354-.644z"></path>
</svg>
