<svg xmlns="http://www.w3.org/2000/svg" xmlns:xlink="http://www.w3.org/1999/xlink" width="206" height="48" viewBox="0 0 206 48"><defs><path id="tto4a" d="M1002.74 293h179.76c4.43 0 6.04.47 7.66 1.35a9.1 9.1 0 0 1 3.75 3.82c.87 1.64 1.33 3.27 1.33 7.77v22.12c0 4.5-.46 6.13-1.33 7.77a9.1 9.1 0 0 1-3.75 3.82c-1.62.88-3.23 1.35-7.66 1.35h-179.76c-4.43 0-6.04-.47-7.66-1.35a9.1 9.1 0 0 1-3.75-3.82c-.87-1.64-1.33-3.27-1.33-7.77v-22.12c0-4.5.46-6.13 1.33-7.77a9.1 9.1 0 0 1 3.75-3.82c1.62-.88 3.23-1.35 7.66-1.35z"/><path id="tto4b" d="M1113.47 307.07h-1.62v2.15h-.99v-5.13h.99v2.09h1.62v-2.09h.98v5.13h-.98z"/><path id="tto4c" d="M1118.43 308.08h-1.51l-.35 1.14h-.98l1.63-5.13h.98l1.62 5.13h-1.03zm-1.28-.8h1.08l-.51-1.72h-.06z"/><path id="tto4d" d="M1124.87 310.21h-.89v-.99h-3.18v-5.13h1.01v4.24h1.43v-4.24h1.01v4.24h.62z"/><path id="tto4e" d="M1128.45 306.5l.06-.66h-.04l-.3.69-1.41 2.7h-.91v-5.14h.98v2.66l-.07.69h.04l.31-.71 1.42-2.64h.9v5.13h-.98z"/><path id="tto4f" d="M1130.9 306.82c0-.42.04-.8.12-1.15.08-.34.2-.62.36-.86.16-.23.37-.4.61-.53s.53-.19.86-.19c.36 0 .66.07.9.2.25.14.45.32.61.57.16.24.27.52.34.86.07.33.1.7.1 1.1 0 .86-.15 1.53-.48 2-.32.5-.81.73-1.47.73a1.65 1.65 0 0 1-1.51-.76 2.5 2.5 0 0 1-.34-.87c-.07-.33-.1-.7-.1-1.1m1.06 0c0 .26.02.5.04.71.02.22.06.42.12.58.07.16.15.29.27.38.12.1.27.15.46.15.18 0 .32-.04.43-.11.12-.08.2-.19.28-.34.07-.15.11-.33.14-.56a6.75 6.75 0 0 0-.1-2.08.9.9 0 0 0-.27-.4.72.72 0 0 0-.48-.14c-.34 0-.58.15-.7.45-.12.3-.19.76-.19 1.36"/><path id="tto4g" d="M1138.55 307.07h-1.62v2.15h-.98v-5.13h.98v2.09h1.62v-2.09h.98v5.13h-.98z"/><path id="tto4h" d="M1143.51 308.08h-1.5l-.35 1.14h-.99l1.63-5.13h.99l1.62 5.13h-1.04zm-1.27-.8h1.08l-.52-1.72h-.06z"/><path id="tto4i" d="M1148.78 305h-.96a74.13 74.13 0 0 1-.18 2.35c-.04.31-.09.59-.15.82-.06.24-.14.43-.24.6-.15.23-.3.4-.48.49a1.23 1.23 0 0 1-1.05.02l.11-.88a.4.4 0 0 0 .09.02h.1c.07 0 .15-.01.23-.05.08-.04.15-.11.21-.2.07-.11.13-.28.18-.5.05-.21.09-.49.12-.82.03-.33.06-.73.08-1.18l.04-1.58h2.91v5.24h-1.01z"/><path id="tto4j" d="M1151.26 304.09h1.01v1.87a2.19 2.19 0 0 1 .3-.03l.2-.02a3.22 3.22 0 0 1 .9.07c.23.05.43.14.6.26.18.13.32.3.42.52.1.21.15.49.15.82 0 .6-.18 1.05-.55 1.35-.36.3-.89.46-1.57.46h-.28a6.67 6.67 0 0 1-1.18-.13zm1.51 4.39c.14 0 .27-.02.4-.05a.88.88 0 0 0 .32-.14c.1-.06.16-.15.21-.26.06-.11.08-.25.08-.4 0-.17-.03-.31-.08-.42a.66.66 0 0 0-.22-.25.8.8 0 0 0-.33-.12 2.38 2.38 0 0 0-.5-.02l-.15.02a1.4 1.4 0 0 0-.23.03v1.56a3.15 3.15 0 0 0 .5.05z"/><path id="tto4k" d="M1158.59 307.07h-1.63v2.15h-.98v-5.13h.98v2.09h1.63v-2.09h.98v5.13h-.98z"/><path id="tto4l" d="M1163.55 308.08h-1.51l-.35 1.14h-.98l1.63-5.13h.98l1.62 5.13h-1.03zm-1.28-.8h1.08l-.51-1.72h-.06z"/><path id="tto4m" d="M1169.67 309.39h-1v-1.95h-.49l-1.1 1.95h-1.16l1.28-2.13c-.1-.04-.22-.1-.33-.18-.1-.08-.2-.18-.3-.3a1.49 1.49 0 0 1-.2-.43 1.91 1.91 0 0 1-.09-.58c0-.33.08-.61.23-.84a1.81 1.81 0 0 1 1.16-.78 4.1 4.1 0 0 1 1.03-.05 6.5 6.5 0 0 1 .97.12zm-1-4.35a2.07 2.07 0 0 0-.38-.04c-.11 0-.23.01-.34.04a.7.7 0 0 0-.3.15.86.86 0 0 0-.22.25.8.8 0 0 0 .17.98c.1.08.2.14.35.18.14.04.28.06.42.06h.3z"/><path id="tto4n" d="M1113.8 318.11h.81v1.5c-.16.12-.36.2-.6.27a2.81 2.81 0 0 1-1.66-.05c-.29-.1-.54-.25-.76-.47-.22-.22-.4-.5-.53-.85a3.6 3.6 0 0 1-.2-1.26c0-.52.08-.95.23-1.3a2.13 2.13 0 0 1 1.36-1.3 3.18 3.18 0 0 1 1.6-.06c.19.05.36.1.49.18v1.56h-.8v-.86c-.16-.02-.31-.04-.48-.04-.19 0-.36.04-.53.11-.16.07-.3.19-.43.34-.12.15-.21.33-.28.56-.07.23-.1.5-.1.8 0 .28.03.53.1.75.06.22.15.41.27.57a1.25 1.25 0 0 0 1.05.5c.16 0 .31-.01.47-.04z"/><path id="tto4o" d="M1118.51 316.94l.06-.67h-.03l-.3.69-1.42 2.69h-.9v-5.13h.97v2.66l-.07.69h.05l.3-.71 1.42-2.64h.9v5.13h-.98z"/><path id="tto4p" d="M1123.74 318.11h.8v1.5c-.15.12-.35.2-.59.27a2.81 2.81 0 0 1-1.66-.05c-.3-.1-.55-.25-.77-.47-.22-.22-.4-.5-.52-.85-.13-.35-.2-.77-.2-1.26 0-.52.07-.95.22-1.3.15-.34.34-.62.58-.84.23-.2.5-.36.78-.45a3.16 3.16 0 0 1 1.6-.06c.2.04.36.1.5.17v1.56h-.81v-.86a2.8 2.8 0 0 0-.47-.04c-.19 0-.37.04-.53.11-.16.07-.3.19-.43.34a1.6 1.6 0 0 0-.28.56c-.07.23-.1.5-.1.8 0 .28.03.53.09.75.06.22.15.41.28.57a1.26 1.26 0 0 0 1.04.5c.16 0 .32-.01.47-.04z"/><path id="tto4q" d="M1126.2 318.84h.85v-3.52h-.7v.9h-.83v-1.7h4.08v1.7h-.82v-.9h-.7v3.52h.83v.8h-2.7z"/><path id="tto4r" d="M1130.74 314.52h3.38v.9h-2.37v1.19h2.19v.89h-2.2v1.25h2.42v.9h-3.42z"/><path id="tto4s" d="M1138.22 316.91l.03-.8h-.04l-.8 1.35h-.18l-.84-1.35h-.04l.05.72v2.82h-.94v-5.13h1l.87 1.42h.02l.86-1.42h1v5.13h-1z"/><path id="tto4t" d="M1143.02 318.51h-1.5l-.35 1.14h-.99l1.63-5.13h.99l1.62 5.13h-1.04zm-1.27-.8h1.08l-.51-1.72h-.07z"/><path id="tto4u" d="M1152.24 320.64h-.9v-.99h-3.17v-5.13h1v4.24h1.43v-4.24h1.02v4.24h.62z"/><path id="tto4v" d="M1156.14 316.94l.06-.67h-.04l-.29.69-1.42 2.69h-.91v-5.13h.98v2.66l-.07.69h.04l.31-.71 1.42-2.64h.9v5.13h-.98z"/><path id="tto4w" d="M1160.07 314.52h.95v.56c.2 0 .4.05.6.11.2.07.38.18.53.34.16.15.28.36.37.63.1.26.14.6.14 1.01 0 .4-.04.74-.13 1-.09.28-.2.5-.35.67-.15.17-.33.3-.53.37s-.4.12-.63.13v.64h-.95v-.64a2.12 2.12 0 0 1-.64-.13 1.3 1.3 0 0 1-.52-.37c-.14-.17-.26-.4-.35-.66-.09-.27-.13-.6-.13-1s.04-.73.14-.99c.09-.26.21-.48.37-.64.15-.15.33-.27.52-.35.2-.07.4-.11.6-.12zm.05 1.37a.68.68 0 0 0-.56.33 3.36 3.36 0 0 0-.12 1.63c.03.17.09.3.15.4.07.1.14.18.23.22.09.04.19.07.3.08zm.85 2.66c.1-.01.2-.04.3-.08a.58.58 0 0 0 .23-.21c.07-.1.12-.24.15-.41a3.41 3.41 0 0 0-.12-1.63.68.68 0 0 0-.56-.33z"/><path id="tto4x" d="M1164.3 314.64a7.04 7.04 0 0 1 2.18-.06c.26.04.49.13.7.25.2.13.37.3.5.53.13.23.2.53.2.89 0 .32-.06.59-.17.82-.12.22-.27.4-.45.55-.19.15-.4.26-.64.33-.24.06-.48.1-.74.1h-.12a2.99 2.99 0 0 1-.46-.03v1.8h-1zm1.5.76a3.55 3.55 0 0 0-.5.04v1.69l.09.01.12.01h.23c.13 0 .26 0 .39-.03a.96.96 0 0 0 .35-.14c.1-.06.18-.16.24-.28.06-.12.1-.27.1-.47 0-.16-.03-.3-.1-.4a.73.73 0 0 0-.22-.26.89.89 0 0 0-.33-.13 1.88 1.88 0 0 0-.38-.04z"/><path id="tto4y" d="M1169.18 317.25c0-.43.04-.81.12-1.15.08-.34.2-.63.36-.86.16-.23.37-.41.61-.53.24-.13.53-.2.86-.2.36 0 .66.08.9.21.25.14.45.32.6.56.16.24.28.53.35.87.07.33.1.7.1 1.1 0 .85-.15 1.52-.48 2-.32.49-.81.73-1.47.73-.35 0-.65-.07-.9-.2a1.65 1.65 0 0 1-.61-.56 2.5 2.5 0 0 1-.34-.87c-.07-.33-.1-.7-.1-1.1m1.06 0c0 .25.01.5.04.71.02.22.06.41.12.58.06.16.15.29.27.38.11.1.27.14.46.14.17 0 .32-.03.43-.1.11-.08.2-.19.27-.34.07-.15.12-.34.15-.56a7 7 0 0 0-.1-2.09.9.9 0 0 0-.27-.39.72.72 0 0 0-.48-.15c-.34 0-.58.16-.7.46-.12.3-.19.76-.19 1.36"/><path id="tto4z" d="M1177.93 316.17a1.07 1.07 0 0 1-.44.63c-.12.08-.26.14-.42.18v.05c.14.02.28.06.41.12a1.06 1.06 0 0 1 .57.62c.06.15.09.32.09.52a1.35 1.35 0 0 1-.62 1.16c-.18.13-.4.22-.63.28-.24.05-.49.08-.74.08h-.31a8.55 8.55 0 0 1-1.29-.1v-5.08a8.2 8.2 0 0 1 2.24-.06c.22.04.42.1.6.2s.32.22.43.39c.1.16.16.38.16.63 0 .13-.02.25-.05.38zm-2.1.58a5.15 5.15 0 0 0 .46-.03c.19-.05.35-.14.49-.26.13-.11.2-.27.2-.46a.6.6 0 0 0-.07-.3.56.56 0 0 0-.2-.2.86.86 0 0 0-.28-.1 8.24 8.24 0 0 0-.93 0v1.35zm.67 2.18a.92.92 0 0 0 .3-.14.65.65 0 0 0 .3-.56.66.66 0 0 0-.1-.38.64.64 0 0 0-.25-.21c-.1-.05-.22-.09-.34-.1a3.1 3.1 0 0 0-.38-.02h-.53v1.4c.02.02.06.02.11.03h.18l.18.02h.18c.12 0 .23-.02.35-.04z"/><path id="tto4A" d="M1179.6 317.25c0-.43.04-.81.12-1.15.08-.34.2-.63.36-.86.17-.23.37-.41.61-.53.25-.13.54-.2.87-.2.35 0 .65.08.9.21.25.14.45.32.6.56.16.24.27.53.34.87.08.33.11.7.11 1.1 0 .85-.16 1.52-.48 2-.33.49-.82.73-1.47.73-.36 0-.66-.07-.91-.2a1.64 1.64 0 0 1-.6-.56 2.5 2.5 0 0 1-.34-.87 5.5 5.5 0 0 1-.1-1.1m1.06 0c0 .25.01.5.03.71.02.22.07.41.13.58.06.16.15.29.26.38.12.1.27.14.47.14.17 0 .31-.03.43-.1.1-.08.2-.19.27-.34.07-.15.12-.34.14-.56a6.95 6.95 0 0 0-.1-2.09.91.91 0 0 0-.27-.39.72.72 0 0 0-.47-.15c-.35 0-.58.16-.7.46-.13.3-.2.76-.2 1.36"/><path id="tto4B" d="M1187.58 317.04l.06-.68h-.04l-.3.7-1.41 2.75h-.91v-5.24h.98v2.72l-.07.7h.04l.3-.72 1.43-2.7h.9v5.24h-.98zm-1.24-3.85c.02.16.07.28.17.35.1.07.21.1.36.1.32 0 .5-.14.53-.44l.8.13a.96.96 0 0 1-.41.69c-.23.14-.53.21-.93.21a3 3 0 0 1-.53-.04c-.17-.03-.3-.08-.43-.15a.86.86 0 0 1-.45-.7z"/><path id="tto4C" d="M1113.62 327.5l.04-.8h-.04l-.81 1.35h-.17l-.85-1.34h-.03l.04.72v2.81h-.94v-5.13h1l.87 1.42h.03l.86-1.42h.99v5.13h-.99z"/><path id="tto4D" d="M1118.75 329.1h-1.5l-.35 1.14h-.99l1.63-5.13h.99l1.62 5.13h-1.04zm-1.27-.8h1.08l-.52-1.72h-.06z"/><path id="tto4E" d="M1121.61 325.07a6.6 6.6 0 0 1 2.2-.06c.25.04.48.13.69.25.2.13.37.3.5.53.13.23.2.52.2.89 0 .31-.06.59-.17.81a1.6 1.6 0 0 1-.45.56c-.19.15-.4.26-.64.32-.24.07-.48.1-.74.1h-.11a2.35 2.35 0 0 1-.35-.01l-.12-.02v1.8h-1zm1.5.75a3.36 3.36 0 0 0-.49.04v1.7h.09a2.45 2.45 0 0 0 .25.02h.1c.13 0 .26 0 .39-.03a.94.94 0 0 0 .35-.14.7.7 0 0 0 .24-.28c.07-.12.1-.28.1-.47 0-.16-.03-.3-.1-.4a.74.74 0 0 0-.22-.26.9.9 0 0 0-.33-.14 1.9 1.9 0 0 0-.38-.04z"/><path id="tto4F" d="M1128.2 328.1h-.52v2.14h-1.02v-5.13h1.02v2.1h.53l1.18-2.1h1.16l-1.46 2.48 1.65 2.65h-1.26z"/><path id="tto4G" d="M1134.48 327.53l.06-.67h-.04l-.3.7-1.41 2.68h-.91v-5.13h.98v2.66l-.07.69h.04l.3-.71 1.43-2.64h.9v5.13h-.98z"/><path id="tto4H" d="M1137.25 325.07a6.61 6.61 0 0 1 2.2-.06c.25.04.48.13.69.25.2.13.37.3.5.53.13.23.2.52.2.89 0 .31-.06.59-.17.81a1.6 1.6 0 0 1-.45.56c-.19.15-.4.26-.64.32-.24.07-.48.1-.74.1h-.12a2.38 2.38 0 0 1-.46-.03v1.8h-1zm1.5.75a3.4 3.4 0 0 0-.49.04v1.7h.09a2.42 2.42 0 0 0 .25.02h.1c.13 0 .26 0 .39-.03a.94.94 0 0 0 .35-.14.7.7 0 0 0 .24-.28c.07-.12.1-.28.1-.47 0-.16-.03-.3-.1-.4a.73.73 0 0 0-.23-.26.89.89 0 0 0-.32-.14 1.9 1.9 0 0 0-.38-.04z"/><path id="tto4I" d="M1142.3 327.68c0-.43.04-.81.12-1.15.08-.34.2-.63.36-.86a1.67 1.67 0 0 1 1.48-.73c.35 0 .65.07.9.2.25.14.45.33.6.57.16.24.27.53.34.86.07.34.11.7.11 1.1 0 .86-.16 1.53-.48 2.01-.33.48-.82.73-1.47.73a1.66 1.66 0 0 1-1.51-.77 2.5 2.5 0 0 1-.35-.86c-.06-.34-.1-.7-.1-1.1m1.07 0c0 .25 0 .49.03.7.02.23.06.42.13.58.06.17.15.3.26.39.12.1.27.14.47.14.17 0 .31-.04.43-.1.1-.08.2-.2.27-.34.07-.15.12-.34.14-.57a7.14 7.14 0 0 0-.1-2.08.92.92 0 0 0-.27-.4.72.72 0 0 0-.47-.14c-.35 0-.58.15-.7.46-.13.3-.2.76-.2 1.36"/><path id="tto4J" d="M1151.05 326.6a1.07 1.07 0 0 1-.44.63 1.2 1.2 0 0 1-.42.18v.04c.15.03.28.07.42.13a1.07 1.07 0 0 1 .57.62c.05.14.08.32.08.52a1.35 1.35 0 0 1-.61 1.16c-.2.12-.4.21-.64.27a3 3 0 0 1-.73.1h-.32a7.94 7.94 0 0 1-1.28-.12v-5.07a10.31 10.31 0 0 1 1.54-.12c.23 0 .47.02.7.06.22.04.42.1.6.2.17.09.31.22.42.39.1.16.16.37.16.63 0 .13-.02.25-.05.38zm-2.1.58a4.63 4.63 0 0 0 .46-.03c.2-.06.35-.14.49-.26s.2-.27.2-.46a.6.6 0 0 0-.07-.31.56.56 0 0 0-.2-.2.8.8 0 0 0-.27-.1 7.03 7.03 0 0 0-.93 0v1.36zm.67 2.17a.94.94 0 0 0 .3-.13.65.65 0 0 0 .29-.56.66.66 0 0 0-.1-.38.65.65 0 0 0-.24-.21c-.1-.05-.21-.09-.34-.1a3.28 3.28 0 0 0-.38-.02h-.53v1.4l.12.02.17.02a14.53 14.53 0 0 1 .36 0c.12 0 .24 0 .35-.04z"/><path id="tto4K" d="M1154.43 328.1h-.53v2.14h-1.01v-5.13h1.01v2.1h.53l1.19-2.1h1.16l-1.47 2.48 1.65 2.65h-1.25z"/><path id="tto4L" d="M1160.7 327.53l.06-.67h-.04l-.29.7-1.42 2.68h-.9v-5.13h.97v2.66l-.07.69h.04l.31-.71 1.42-2.64h.9v5.13h-.98z"/><path id="tto4M" d="M1025.42 302.74a2.27 2.27 0 0 1 2.24 2.29v5.68h4.7v-5.68a7 7 0 0 0-6.94-7.06h-5.61v4.77z"/><path id="tto4N" d="M1027.66 329c0 1.26-1 2.28-2.24 2.28h-5.61v4.75h5.6a7 7 0 0 0 6.94-7.03v-5.71h-4.69z"/><path id="tto4O" d="M999.57 305.03c0-1.26 1.01-2.3 2.25-2.3h5.6v-4.76h-5.6a7 7 0 0 0-6.93 7.06v5.68h4.68z"/><path id="tto4P" d="M1001.82 331.28a2.27 2.27 0 0 1-2.25-2.28v-5.71h-4.68V329a7 7 0 0 0 6.93 7.03h5.6v-4.75z"/><path id="tto4Q" d="M1010.92 328.42l-10-10.17 3.3-3.37 6.7 6.8 12.1-12.3 3.3 3.37z"/><path id="tto4R" d="M1052.88 323.67a4.57 4.57 0 0 1 .27 5.21 4.95 4.95 0 0 1-2.13 1.83c-.95.46-2.13.69-3.54.69a12.5 12.5 0 0 1-3.06-.38 9 9 0 0 1-2.62-1.1l1.5-3.17a7.45 7.45 0 0 0 4.05 1.24 3.1 3.1 0 0 0 1.7-.4c.41-.28.62-.66.62-1.16 0-.96-.74-1.45-2.23-1.45h-1.73v-2.67l2.6-2.88h-5.76v-3.26h10.57v2.65l-3.03 3.32c1.21.26 2.14.77 2.8 1.53"/><path id="tto4S" d="M1070.14 316.17v14.9h-4.16v-5.81h-5.68v5.8h-4.17v-14.89h4.17v5.6h5.68v-5.6z"/><path id="tto4T" d="M1083.42 316.68a5.89 5.89 0 0 1 2.46 2.46c.59 1.07.88 2.36.88 3.87v8.06h-4.17v-3.3h-5.74v3.3h-4.1V323c0-1.5.29-2.8.87-3.87a5.9 5.9 0 0 1 2.46-2.46 7.73 7.73 0 0 1 3.67-.84c1.4 0 2.61.28 3.67.84zm-.83 7.82v-1.86c0-1.09-.26-1.91-.78-2.47a2.71 2.71 0 0 0-2.08-.83c-.88 0-1.58.28-2.1.83-.52.56-.78 1.38-.78 2.47v1.86z"/><path id="tto4U" d="M1093.5 324v7.07h-4.14v-14.9h4.13v7.06h.1l5.16-7.06h4.95l-5.65 7.2 5.8 7.7h-5.37z"/><path id="tto4V" d="M1049.3 303.92v7.62h-2.53v-2.44c-.5.15-.97.23-1.38.23-1.12 0-1.97-.26-2.55-.8-.59-.52-.88-1.3-.88-2.31v-2.3h2.52v2.02c0 .46.1.8.3 1.02.21.23.52.34.93.34.43 0 .78-.06 1.06-.18v-3.2z"/><path id="tto4W" d="M1057.11 309.6v1.94h-6.19v-7.62h6.05v1.94h-3.58v.9h3.15v1.84h-3.15v1z"/><path id="tto4X" d="M1060.32 311.03a3.78 3.78 0 0 1-2.07-3.46 3.77 3.77 0 0 1 2.07-3.47c.64-.34 1.37-.5 2.17-.5.74 0 1.4.12 1.98.38.58.26 1.06.64 1.44 1.13l-1.62 1.45c-.47-.6-1.03-.9-1.67-.9-.53 0-.97.18-1.3.52-.32.35-.48.8-.48 1.39 0 .57.16 1.04.49 1.38.32.34.76.51 1.3.51.63 0 1.19-.3 1.66-.88l1.62 1.44c-.38.49-.86.87-1.44 1.13-.58.26-1.24.39-1.98.39-.8 0-1.53-.17-2.17-.5"/><path id="tto4Y" d="M1073.56 305.92h-2.18v5.62h-2.47v-5.62h-2.19v-2h6.84z"/><path id="tto4Z" d="M1082.2 303.92v7.62h-2.57v-2.8h-2.37v2.8h-2.56v-7.62h2.56v2.7h2.37v-2.7z"/><path id="tto4aa" d="M1091.04 308.78c0 .89-.3 1.57-.88 2.05-.59.47-1.39.7-2.4.7h-3.77v-7.6h2.51v2.33h1.58c.94 0 1.67.21 2.19.64.51.42.77 1.05.77 1.88zm-2.57.04c0-.51-.3-.76-.9-.76h-1.07v1.68h1.08c.26 0 .47-.08.64-.24a.91.91 0 0 0 .25-.68zm3.26-4.9h2.52v7.62h-2.52z"/><path id="tto4ab" d="M1095.88 303.92h2.5v3.96l2.6-3.96h2.4v7.62h-2.51v-3.96l-2.59 3.96h-2.4zm1.94-.9c-.37-.32-.55-.79-.55-1.41h1.69c0 .24.05.42.15.53.1.1.26.17.5.17.25 0 .43-.06.53-.17.1-.1.16-.29.16-.53h1.69c0 .62-.19 1.09-.56 1.4-.37.31-.98.47-1.81.47-.84 0-1.44-.16-1.8-.47z"/></defs><g><g transform="translate(-990 -293)"><g><use fill="#eae60e" xlink:href="#tto4a"/></g><g><use fill="#363634" xlink:href="#tto4b"/></g><g><use fill="#363634" xlink:href="#tto4c"/></g><g><use fill="#363634" xlink:href="#tto4d"/></g><g><use fill="#363634" xlink:href="#tto4e"/></g><g><use fill="#363634" xlink:href="#tto4f"/></g><g><use fill="#363634" xlink:href="#tto4g"/></g><g><use fill="#363634" xlink:href="#tto4h"/></g><g><use fill="#363634" xlink:href="#tto4i"/></g><g><use fill="#363634" xlink:href="#tto4j"/></g><g><use fill="#363634" xlink:href="#tto4k"/></g><g><use fill="#363634" xlink:href="#tto4l"/></g><g><use fill="#363634" xlink:href="#tto4m"/></g><g><use fill="#363634" xlink:href="#tto4n"/></g><g><use fill="#363634" xlink:href="#tto4o"/></g><g><use fill="#363634" xlink:href="#tto4p"/></g><g><use fill="#363634" xlink:href="#tto4q"/></g><g><use fill="#363634" xlink:href="#tto4r"/></g><g><use fill="#363634" xlink:href="#tto4s"/></g><g><use fill="#363634" xlink:href="#tto4t"/></g><g><use fill="#363634" xlink:href="#tto4u"/></g><g><use fill="#363634" xlink:href="#tto4v"/></g><g><use fill="#363634" xlink:href="#tto4w"/></g><g><use fill="#363634" xlink:href="#tto4x"/></g><g><use fill="#363634" xlink:href="#tto4y"/></g><g><use fill="#363634" xlink:href="#tto4z"/></g><g><use fill="#363634" xlink:href="#tto4A"/></g><g><use fill="#363634" xlink:href="#tto4B"/></g><g><use fill="#363634" xlink:href="#tto4C"/></g><g><use fill="#363634" xlink:href="#tto4D"/></g><g><use fill="#363634" xlink:href="#tto4E"/></g><g><use fill="#363634" xlink:href="#tto4F"/></g><g><use fill="#363634" xlink:href="#tto4G"/></g><g><use fill="#363634" xlink:href="#tto4H"/></g><g><use fill="#363634" xlink:href="#tto4I"/></g><g><use fill="#363634" xlink:href="#tto4J"/></g><g><use fill="#363634" xlink:href="#tto4K"/></g><g><use fill="#363634" xlink:href="#tto4L"/></g><g><use fill="#363634" xlink:href="#tto4M"/></g><g><use fill="#363634" xlink:href="#tto4N"/></g><g><use fill="#363634" xlink:href="#tto4O"/></g><g><use fill="#363634" xlink:href="#tto4P"/></g><g><use fill="#363634" xlink:href="#tto4Q"/></g><g><use fill="#363634" xlink:href="#tto4R"/></g><g><use fill="#363634" xlink:href="#tto4S"/></g><g><use fill="#363634" xlink:href="#tto4T"/></g><g><use fill="#363634" xlink:href="#tto4U"/></g><g><use fill="#363634" xlink:href="#tto4V"/></g><g><use fill="#363634" xlink:href="#tto4W"/></g><g><use fill="#363634" xlink:href="#tto4X"/></g><g><use fill="#363634" xlink:href="#tto4Y"/></g><g><use fill="#363634" xlink:href="#tto4Z"/></g><g><use fill="#363634" xlink:href="#tto4aa"/></g><g><use fill="#363634" xlink:href="#tto4ab"/></g></g></g></svg>